:SAMPLES-PER-SECOND 30
:FULLY-SPECIFIED
:DEGREES
93
root  -33.7974 45.2343 -14.772 -6.16675 3.61647 -36.6347
RightUpLeg  -44.5971 -22.4561 -20.6338
RightLeg  70.1741 1.84346 4.84094
RightFoot  9.24565 -4.1454 22.9033
RightToes  0.00048216 0.542163 -0.142577
Spine  34.7194 -6.76603 3.24617
Spine1  -10.6814 -7.59535 17.4984
HEad  -15.4575 13.196 1.63968
LeftShoulder1  4.59661 -11.5983 -24.2036
LeftArm  -30.6382 -5.08842 14.1075
LeftForeArm  6.44406 -12.9322 -1.33528
LeftHand  -0.25398 0.0180481 5.50724
RightShoulder  0.19054 -12.3834 -12.0455
RightArm  -45.3308 1.68088 -1.21406
RightForeArm  -37.1675 13.9396 3.2758
RightHand  -6.57863 20.8296 -28.6072
LeftUpLeg  -0.315258 17.1633 19.9416
LeftLeg  3.09339 25.4777 -5.98584
LeftFoot  28.6037 1.69276 -5.20592
LeftToes  1.0625e-005 4.65855e-005 -8.18498e-006
94
root  -35.7791 43.1833 -14.3015 -8.51991 5.78861 -36.0089
RightUpLeg  -40.967 -21.0204 -20.3647
RightLeg  71.1246 1.4685 3.95639
RightFoot  9.91881 -4.21072 22.5373
RightToes  0.00048216 0.542163 -0.142577
Spine  33.2529 -6.23256 0.9161
Spine1  -9.72697 -7.48949 13.6276
HEad  -14.5531 11.2798 4.80221
LeftShoulder1  4.91849 -12.3232 -24.8751
LeftArm  -28.4119 -11.5192 9.52353
LeftForeArm  5.88509 -8.1588 -2.01986
LeftHand  -0.25398 0.0180481 5.50724
RightShoulder  0.370538 -13.0725 -13.9957
RightArm  -44.8709 8.66097 -4.76415
RightForeArm  -35.8149 15.5577 4.42896
RightHand  -11.3555 28.7589 -37.5231
LeftUpLeg  1.83397 17.0323 19.9552
LeftLeg  4.19036 26.0514 -6.17842
LeftFoot  18.2472 -0.389421 1.7196
LeftToes  1.0625e-005 4.65855e-005 -8.18498e-006
95
root  -37.6561 40.8347 -13.8779 -10.0781 8.99952 -34.5203
RightUpLeg  -36.9924 -20.899 -20.925
RightLeg  69.4704 1.26241 2.93305
RightFoot  10.3641 -4.26879 22.389
RightToes  0.00048216 0.542163 -0.142577
Spine  32.0283 -5.57072 -1.13166
Spine1  -9.28653 -7.03019 9.22993
HEad  -16.0695 7.69768 8.84148
LeftShoulder1  4.79629 -12.0634 -24.5962
LeftArm  -26.8326 -19.1551 2.28395
LeftForeArm  9.34591 -3.80129 -2.78438
LeftHand  -0.25398 0.0180481 5.50724
RightShoulder  0.493579 -14.4859 -14.7085
RightArm  -48.1125 15.8207 -6.98195
RightForeArm  -34.6742 17.6239 5.1335
RightHand  -13.244 30.5069 -41.1053
LeftUpLeg  -0.00821194 20.9486 16.9729
LeftLeg  13.2567 19.3632 -1.452
LeftFoot  -5.13129 -0.585368 12.1656
LeftToes  1.0625e-005 4.65855e-005 -8.18498e-006
96
root  -39.345 38.8198 -13.5824 -10.3414 14.3092 -31.6801
RightUpLeg  -32.143 -20.6136 -22.442
RightLeg  64.0417 0.630291 0.924933
RightFoot  9.41362 -3.71547 20.4324
RightToes  0.00048216 0.542163 -0.142577
Spine  31.0675 -4.55489 -3.924
Spine1  -8.18032 -6.48509 5.88143
HEad  -21.1784 4.70796 10.1641
LeftShoulder1  4.84168 -11.995 -25.0392
LeftArm  -26.7698 -25.6077 -7.57553
LeftForeArm  14.6001 -3.18568 -2.68735
LeftHand  -0.25398 0.0180481 5.50724
RightShoulder  0.483339 -15.731 -14.1095
RightArm  -52.0119 18.5262 -6.74893
RightForeArm  -38.3785 23.4782 6.68036
RightHand  -8.15752 20.6511 -35.6135
LeftUpLeg  -5.71403 24.2795 10.4251
LeftLeg  24.3381 13.1057 7.07372
LeftFoot  -25.0106 2.21399 18.1994
LeftToes  1.0625e-005 4.65855e-005 -8.18498e-006
97
root  -40.7712 37.6152 -13.3163 -9.94061 20.1995 -28.9089
RightUpLeg  -25.9629 -18.4261 -21.9201
RightLeg  54.0596 -2.34841 -3.65881
RightFoot  7.32933 -2.71901 16.7064
RightToes  0.00048216 0.542163 -0.142577
Spine  31.4556 -3.20881 -6.24826
Spine1  -6.75389 -5.4622 3.11025
HEad  -29.7395 3.68059 8.86892
LeftShoulder1  5.78758 -13.2379 -28.4249
LeftArm  -26.0693 -26.2212 -17.0705
LeftForeArm  20.337 -8.2514 -2.62453
LeftHand  -0.25398 0.0180481 5.50724
RightShoulder  0.184997 -15.067 -11.3608
RightArm  -51.4205 15.7228 -4.67898
RightForeArm  -37.359 33.8551 9.31736
RightHand  -5.31541 12.6365 -33.6883
LeftUpLeg  -12.4331 11.7629 5.57723
LeftLeg  36.6851 19.7048 15.3714
LeftFoot  -32.1808 3.11538 15.7309
LeftToes  1.0625e-005 4.65855e-005 -8.18498e-006
98
root  -41.8554 37.1786 -12.8851 -9.88285 24.7526 -27.7236
RightUpLeg  -18.8077 -15.5956 -17.0633
RightLeg  40.4608 -6.46027 -6.29874
RightFoot  3.79694 -1.79045 13.6159
RightToes  0.00048216 0.542163 -0.142577
Spine  32.7473 -2.09008 -6.41256
Spine1  -5.8539 -3.97772 -0.273212
HEad  -38.2504 4.39742 6.21916
LeftShoulder1  7.28595 -14.6623 -34.0694
LeftArm  -22.2609 -19.2779 -23.2885
LeftForeArm  26.7532 -14.5803 -3.16954
LeftHand  -0.25398 0.0180481 5.50724
RightShoulder  -0.200403 -11.5902 -6.6326
RightArm  -47.145 12.3324 -2.55248
RightForeArm  -22.8889 41.5025 11.1531
RightHand  -7.58385 18.9633 -35.4831
LeftUpLeg  -16.7307 5.90926 4.70208
LeftLeg  44.6306 18.7736 19.0957
LeftFoot  -31.8257 2.40693 12.1838
LeftToes  1.0625e-005 4.65855e-005 -8.18498e-006
99
root  -42.6366 37.2195 -12.2531 -9.0001 28.756 -26.7422
RightUpLeg  -12.1812 -15.6235 -10.5173
RightLeg  24.7616 -4.49714 -2.65473
RightFoot  -1.01637 -1.26565 14.0695
RightToes  0.00048216 0.542163 -0.142577
Spine  32.3111 -1.27981 -6.45919
Spine1  -4.84583 -2.61345 -3.56045
HEad  -42.6299 5.31996 2.7238
LeftShoulder1  8.08835 -14.5593 -38.6294
LeftArm  -18.9533 -8.12524 -26.599
LeftForeArm  30.3564 -15.1554 -3.17998
LeftHand  -0.25398 0.0180481 5.50724
RightShoulder  -0.184715 -6.23759 -1.91732
RightArm  -40.909 12.161 -0.684204
RightForeArm  -16.7089 40.1602 10.4636
RightHand  -7.10612 18.6854 -33.6775
LeftUpLeg  -18.7542 3.36584 4.66612
LeftLeg  46.5432 16.7856 18.4732
LeftFoot  -31.1768 2.08606 10.8225
LeftToes  1.0625e-005 4.65855e-005 -8.18498e-006
100
root  -43.2641 37.4179 -11.4824 -5.25719 33.9232 -23.7059
RightUpLeg  -8.94115 -15.4195 -6.96491
RightLeg  12.2179 1.2129 1.83907
RightFoot  -4.25969 -1.05726 16.273
RightToes  0.00048216 0.542163 -0.142577
Spine  29.1758 -0.440959 -7.8178
Spine1  -3.2456 -1.43554 -5.9588
HEad  -43.3118 4.2389 -0.285685
LeftShoulder1  7.6116 -13.1116 -39.5619
LeftArm  -20.5532 3.34239 -29.0513
LeftForeArm  23.8411 -8.8267 -2.35763
LeftHand  -0.25398 0.0180481 5.50724
RightShoulder  0.214105 -1.33934 1.87384
RightArm  -33.4781 13.4507 1.17742
RightForeArm  -24.7669 32.6112 8.45292
RightHand  -5.38965 14.2727 -31.5012
LeftUpLeg  -20.7938 0.642828 2.67599
LeftLeg  45.0397 15.6165 16.4987
LeftFoot  -31.3112 2.10398 10.8391
LeftToes  1.0625e-005 4.65855e-005 -8.18498e-006
101
root  -43.6817 37.7768 -10.7666 0.0811128 39.7641 -19.6132
RightUpLeg  -10.5262 -9.7373 -6.84052
RightLeg  9.44151 -2.6596 2.59137
RightFoot  -6.46149 -0.6182 13.5033
RightToes  0.00048216 0.542163 -0.142577
Spine  25.889 0.333113 -7.32689
Spine1  -1.66055 0.252137 -8.79127
HEad  -43.4597 0.614295 -1.99971
LeftShoulder1  6.66262 -11.6614 -37.7908
LeftArm  -24.2344 13.6234 -29.4452
LeftForeArm  4.37967 -1.62957 0.111266
LeftHand  -0.25398 0.0180481 5.50724
RightShoulder  0.619636 1.10167 5.87526
RightArm  -26.7971 13.8656 2.90413
RightForeArm  -33.1023 26.5761 7.18657
RightHand  -4.64168 12.1858 -30.4224
LeftUpLeg  -22.848 -3.025 0.135303
LeftLeg  41.5774 14.5862 13.8317
LeftFoot  -29.4047 1.88235 10.6809
LeftToes  1.0625e-005 4.65855e-005 -8.18498e-006
102
root  -43.9151 38.1869 -10.1727 3.61878 45.1033 -16.5675
RightUpLeg  -13.0823 -12.4948 -7.31797
RightLeg  13.9803 -4.73402 0.278637
RightFoot  -7.40314 -0.52604 13.6148
RightToes  0.00048216 0.542163 -0.142577
Spine  24.7277 1.11855 -3.91882
Spine1  -0.778416 2.65783 -12.9075
HEad  -44.4599 -3.85862 -2.87354
LeftShoulder1  5.97929 -10.9212 -35.3867
LeftArm  -27.6065 22.8157 -25.3349
LeftForeArm  -15.497 0.741173 2.56195
LeftHand  -0.25398 0.0180481 5.50724
RightShoulder  0.892322 1.5367 10.5203
RightArm  -24.3445 14.0638 4.81467
RightForeArm  -31.1509 24.7404 6.68289
RightHand  -4.99866 13.4743 -30.5033
LeftUpLeg  -23.2379 -5.51537 -1.08385
LeftLeg  37.8377 12.417 10.528
LeftFoot  -26.6502 1.5766 10.5115
LeftToes  1.0625e-005 4.65855e-005 -8.18498e-006
103
root  -43.9869 38.6313 -9.60591 4.13821 50.0126 -15.4587
RightUpLeg  -13.4535 -18.1736 -8.02492
RightLeg  18.676 -3.79979 -1.5007
RightFoot  -3.5789 -1.10934 15.818
RightToes  0.00048216 0.542163 -0.142577
Spine  25.0734 1.93585 -0.300505
Spine1  -0.119518 4.86124 -15.3352
HEad  -44.7772 -6.0422 -3.34364
LeftShoulder1  5.24214 -10.1882 -32.2228
LeftArm  -27.0863 30.7577 -18.2322
LeftForeArm  -27.0514 -1.38716 3.39959
LeftHand  -0.25398 0.0180481 5.50724
RightShoulder  1.22835 2.20342 14.6434
RightArm  -25.7013 15.4197 7.9918
RightForeArm  -22.0815 24.4108 6.24502
RightHand  -5.28893 14.5183 -30.5805
LeftUpLeg  -21.212 -5.93169 -0.932464
LeftLeg  33.7564 9.04177 6.81364
LeftFoot  -24.9862 1.47839 11.0604
LeftToes  1.0625e-005 4.65855e-005 -8.18498e-006
104
root  -43.9827 39.0786 -8.97989 3.01036 54.7531 -15.6335
RightUpLeg  -14.1209 -19.0294 -8.82945
RightLeg  24.515 -2.72048 -1.59255
RightFoot  2.12248 -1.86842 15.9811
RightToes  0.00048216 0.542163 -0.142577
Spine  25.2467 2.89558 1.72808
Spine1  0.395132 6.14014 -14.0116
HEad  -44.1143 -5.66904 -3.11815
LeftShoulder1  4.188 -8.99165 -27.3678
LeftArm  -24.0568 36.653 -10.6439
LeftForeArm  -28.6261 -5.17694 3.14596
LeftHand  -0.25398 0.0180481 5.50724
RightShoulder  1.80735 3.96162 17.6242
RightArm  -26.4497 18.4002 13.3339
RightForeArm  -16.2264 22.2376 5.68153
RightHand  -4.73285 13.2537 -29.2841
LeftUpLeg  -18.1902 -5.75056 0.0401568
LeftLeg  29.5795 5.36875 3.63645
LeftFoot  -23.8249 1.40662 11.4989
LeftToes  1.0625e-005 4.65855e-005 -8.18498e-006
105
root  -43.9524 39.5283 -8.32888 1.52474 58.7177 -16.1592
RightUpLeg  -16.8276 -16.1028 -8.80113
RightLeg  32.4063 -1.78831 -1.4794
RightFoot  5.59183 -1.98608 13.5105
RightToes  0.00048216 0.542163 -0.142577
Spine  25.2678 3.76383 3.31597
Spine1  0.65339 6.95652 -11.695
HEad  -44.1278 -4.55831 -2.66943
LeftShoulder1  3.18827 -7.98985 -21.3618
LeftArm  -22.1967 39.8385 -3.43881
LeftForeArm  -22.252 -9.6134 2.80396
LeftHand  -0.25398 0.0180481 5.50724
RightShoulder  2.44828 5.8052 19.9048
RightArm  -26.0176 23.3659 21.1513
RightForeArm  -14.8739 16.1742 5.39546
RightHand  -3.88244 11.2144 -27.1142
LeftUpLeg  -15.1996 -6.28497 1.19679
LeftLeg  25.5985 2.64274 1.70686
LeftFoot  -21.796 1.1359 10.9232
LeftToes  1.0625e-005 4.65855e-005 -8.18498e-006
106
root  -43.9117 39.8759 -7.64008 0.379597 61.6519 -16.1349
RightUpLeg  -20.613 -12.4647 -8.75987
RightLeg  40.4658 -1.39503 -1.55361
RightFoot  5.52306 -1.74866 12.0102
RightToes  0.00048216 0.542163 -0.142577
Spine  25.5801 4.19217 5.31206
Spine1  1.08236 7.87377 -11.4939
HEad  -45.4474 -4.13868 -3.33033
LeftShoulder1  2.48205 -7.64938 -15.4501
LeftArm  -25.733 40.4666 2.54594
LeftForeArm  -14.0782 -14.7418 1.28222
LeftHand  -0.25398 0.0180481 5.50724
RightShoulder  2.9839 7.1402 21.7543
RightArm  -25.2826 29.8135 31.3359
RightForeArm  -11.0779 7.70661 4.90018
RightHand  -3.08126 9.18942 -24.6068
LeftUpLeg  -12.3695 -7.05419 1.98637
LeftLeg  22.4724 0.715795 0.650743
LeftFoot  -19.6583 0.838154 9.88187
LeftToes  1.0625e-005 4.65855e-005 -8.18498e-006
107
root  -43.772 40.1326 -6.91672 -0.192267 64.3384 -15.6021
RightUpLeg  -24.3091 -10.3994 -8.79793
RightLeg  45.5642 -1.03965 -1.46031
RightFoot  3.05492 -1.48382 11.8846
RightToes  0.00048216 0.542163 -0.142577
Spine  25.8083 4.1617 7.81197
Spine1  1.77044 8.67469 -12.3623
HEad  -46.8177 -4.7694 -5.17826
LeftShoulder1  1.96395 -7.51964 -10.5458
LeftArm  -36.1317 38.8962 6.07957
LeftForeArm  -7.43548 -20.2271 -2.63837
LeftHand  -0.25398 0.0180481 5.50724
RightShoulder  3.56069 8.61314 23.1785
RightArm  -20.9038 35.3923 43.1215
RightForeArm  -1.1373 1.30818 3.60322
RightHand  -2.05005 6.1149 -20.718
LeftUpLeg  -9.52734 -7.09687 2.51168
LeftLeg  19.5132 -1.6783 -0.2942
LeftFoot  -18.0258 0.649888 9.26004
LeftToes  1.0625e-005 4.65855e-005 -8.18498e-006
